<svg xmlns="http://www.w3.org/2000/svg" version="1.1" xmlns:xlink="http://www.w3.org/1999/xlink" viewBox="0 0 200 200"><rect width="200" height="200" fill="url('#gradient')"></rect><defs><linearGradient id="gradient" gradientTransform="rotate(317 0.5 0.5)"><stop offset="0%" stop-color="#80328c"></stop><stop offset="100%" stop-color="#9e9928"></stop></linearGradient></defs><g><g fill="#0ef701" transform="matrix(5.536797837188345,0,0,5.536797837188345,10.16487296695965,136.51685830858528)" stroke="#dba545" stroke-width="0.25"><path d="M9.98 0L9.15-2.66L4.45-2.66L3.63 0L-0.03 0L5.19-14.22L8.41-14.22L13.66 0L9.98 0ZM6.80-10.23L5.27-5.30L8.33-5.30L6.80-10.23ZM20.54-14.22L15.67 1.22L13.34 1.22L18.19-14.22L20.54-14.22ZM29.05-3.78L29.05-3.78Q29.05-4.53 28.52-4.95Q27.99-5.37 26.65-5.82Q25.31-6.27 24.46-6.69L24.46-6.69Q21.70-8.05 21.70-10.42L21.70-10.42Q21.70-11.60 22.39-12.50Q23.08-13.41 24.34-13.91Q25.60-14.41 27.17-14.41L27.17-14.41Q28.70-14.41 29.92-13.87Q31.13-13.32 31.81-12.31Q32.48-11.30 32.48-10L32.48-10L29.06-10Q29.06-10.87 28.53-11.35Q28.00-11.83 27.09-11.83L27.09-11.83Q26.17-11.83 25.64-11.42Q25.11-11.02 25.11-10.39L25.11-10.39Q25.11-9.84 25.69-9.40Q26.28-8.96 27.75-8.48Q29.23-8.01 30.18-7.46L30.18-7.46Q32.48-6.13 32.48-3.80L32.48-3.80Q32.48-1.93 31.07-0.87Q29.67 0.20 27.22 0.20L27.22 0.20Q25.49 0.20 24.09-0.42Q22.69-1.04 21.98-2.12Q21.27-3.20 21.27-4.61L21.27-4.61L24.71-4.61Q24.71-3.47 25.30-2.92Q25.89-2.38 27.22-2.38L27.22-2.38Q28.07-2.38 28.56-2.75Q29.05-3.12 29.05-3.78Z"></path></g></g></svg>